# xmcd
#
# Track frame offsets: 
#        150
#        18536
#        34318
#        49244
#        65420
#        79395
#        103984
#        121328
#        140735
#        161575
#        184390
#        196240
#        220653
#        233986
#        245356
#        269001
#
# Disc length: 3771 seconds
#
# Revision: 3
# Processed by: cddbd v1.5.2PL0 Copyright (c) Steve Scherf et al.
# Submitted via: ExactAudioCopy v1.0b2
#
DISCID=f60eb910
DTITLE=Various Artist - Best Sound Collection Vol
DYEAR=2008
DGENRE=Pop
TTITLE0=All Out Of Love
TTITLE1=Dust In The Wind
TTITLE2=Longer
TTITLE3=Always On My Mind
TTITLE4=When I Fall In Love
TTITLE5=Every Time You Go Away
TTITLE6=Ture Colors
TTITLE7=The One That You Love
TTITLE8=You've Lost That Lovin' Feeling
TTITLE9=Dog and Butterfly
TTITLE10=Put Your Head On My Shoulder
TTITLE11=I Believe I Can Fly
TTITLE12=Try To Remember
TTITLE13=You Are My Destiny
TTITLE14=Sunshine On My Shoulders
TTITLE15=The Sounds Of Silence
EXTD=YEAR: 2008
EXTT0=
EXTT1=
EXTT2=
EXTT3=
EXTT4=
EXTT5=
EXTT6=
EXTT7=
EXTT8=
EXTT9=
EXTT10=
EXTT11=
EXTT12=
EXTT13=
EXTT14=
EXTT15=
PLAYORDER=
